<svg width="30" height="30" viewBox="0 0 30 30" fill="none" xmlns="http://www.w3.org/2000/svg">
<g clip-path="url(#clip0)">
<path d="M17.7485 15.0245L29.4299 3.34279C30.1901 2.58294 30.1901 1.35437 29.4299 0.594515C28.67 -0.165335 27.4415 -0.165335 26.6816 0.594515L14.9998 12.2763L3.31843 0.594515C2.55822 -0.165335 1.33001 -0.165335 0.570155 0.594515C-0.190052 1.35437 -0.190052 2.58294 0.570155 3.34279L12.2516 15.0245L0.570155 26.7063C-0.190052 27.4662 -0.190052 28.6947 0.570155 29.4546C0.948834 29.8336 1.44674 30.024 1.94429 30.024C2.44184 30.024 2.93939 29.8336 3.31843 29.4546L14.9998 17.7728L26.6816 29.4546C27.0606 29.8336 27.5582 30.024 28.0557 30.024C28.5533 30.024 29.0508 29.8336 29.4299 29.4546C30.1901 28.6947 30.1901 27.4662 29.4299 26.7063L17.7485 15.0245Z" fill="black"/>
</g>
<defs>
<clipPath id="clip0">
<rect width="30" height="30" fill="white"/>
</clipPath>
</defs>
</svg>
